<?xml version="1.0" encoding="UTF-8"?>
<!DOCTYPE svg PUBLIC "-//W3C//DTD SVG 1.1//EN" "http://www.w3.org/Graphics/SVG/1.1/DTD/svg11.dtd">
<svg xmlns="http://www.w3.org/2000/svg" version="1.1" width="500px" height="120px" style="shape-rendering:geometricPrecision; text-rendering:geometricPrecision; image-rendering:optimizeQuality; fill-rule:evenodd; clip-rule:evenodd" xmlns:xlink="http://www.w3.org/1999/xlink">
<g><path style="opacity:1" fill="#f8bd0f" d="M 79.5,49.5 C 82.4569,50.5263 85.6235,51.193 89,51.5C 93.0502,50.0438 97.2169,49.3771 101.5,49.5C 96.1773,55.5972 90.6773,61.5972 85,67.5C 84.3333,69.5 84.3333,71.5 85,73.5C 88.3752,81.9478 90.7085,90.6145 92,99.5C 87.5575,94.8867 83.0575,90.5533 78.5,86.5C 78.1667,85.8333 77.8333,85.1667 77.5,84.5C 76.2562,80.5881 73.5895,78.5881 69.5,78.5C 68.1266,78.3433 66.7932,78.51 65.5,79C 59.617,85.3855 53.2836,91.2189 46.5,96.5C 46.1667,96 45.8333,95.5 45.5,95C 47.6297,86.0169 49.6297,77.0169 51.5,68C 51.2409,66.7387 50.5742,65.7387 49.5,65C 46.6089,63.7258 43.9422,62.2258 41.5,60.5C 39.0246,57.7589 36.0246,55.7589 32.5,54.5C 32.5569,53.391 32.8902,52.391 33.5,51.5C 33.8333,51.5 34.1667,51.5 34.5,51.5C 42.2354,50.7578 49.902,50.2578 57.5,50C 58.464,48.2745 59.1307,46.4412 59.5,44.5C 59.5,43.8333 59.5,43.1667 59.5,42.5C 61.0739,40.8984 61.7406,38.8984 61.5,36.5C 64.4965,33.5026 66.1631,29.836 66.5,25.5C 67.1298,23.0648 68.4631,22.3982 70.5,23.5C 72.2261,31.1812 74.0594,38.8479 76,46.5C 76.4224,48.4257 77.5891,49.4257 79.5,49.5 Z"/></g>
<g><path style="opacity:1" fill="#3d5cd9" d="M 446.5,60.5 C 446.5,74.1667 446.5,87.8333 446.5,101.5C 444.097,101.552 441.764,101.219 439.5,100.5C 438.074,89.1621 438.24,77.8287 440,66.5C 441.241,68.4206 442.741,68.754 444.5,67.5C 443,65.4944 441.167,63.8277 439,62.5C 438.333,63.8333 437.667,65.1667 437,66.5C 434.705,64.3751 432.205,64.0417 429.5,65.5C 427.784,64.4513 426.451,63.118 425.5,61.5C 422.952,54.6293 423.785,47.6293 428,40.5C 432.167,33.6667 437.667,28.1667 444.5,24C 452.53,21.1559 456.196,23.8226 455.5,32C 445.06,37.269 438.06,45.4357 434.5,56.5C 434.833,57.1667 435.167,57.8333 435.5,58.5C 438.435,55.8658 441.768,54.1992 445.5,53.5C 445.993,55.8056 446.326,58.139 446.5,60.5 Z"/></g>
<g><path style="opacity:1" fill="#3a5be1" d="M 345.5,33.5 C 344.699,35.0418 344.366,36.7085 344.5,38.5C 342.994,42.5952 341.994,46.9286 341.5,51.5C 342.325,52.3857 343.325,52.719 344.5,52.5C 345.199,54.9948 346.199,57.3281 347.5,59.5C 344.167,59.8333 340.833,60.1667 337.5,60.5C 338.995,58.203 339.995,55.8697 340.5,53.5C 340,53.1667 339.5,52.8333 339,52.5C 337.449,54.894 335.282,56.2273 332.5,56.5C 332.5,55.1667 332.5,53.8333 332.5,52.5C 336.699,52.4732 337.533,50.8065 335,47.5C 334.169,40.144 334.335,32.8107 335.5,25.5C 336.852,23.3636 338.518,23.0302 340.5,24.5C 341.834,26.8183 341.168,28.485 338.5,29.5C 339.242,30.2868 340.075,30.9535 341,31.5C 341.71,30.0267 342.876,29.3601 344.5,29.5C 344.232,31.099 344.566,32.4324 345.5,33.5 Z"/></g>
<g><path style="opacity:1" fill="#3d5cd6" d="M 221.5,73.5 C 221.52,71.857 220.853,70.5237 219.5,69.5C 219.833,69.1667 220.167,68.8333 220.5,68.5C 221.548,69.3829 222.715,70.0496 224,70.5C 226.787,69.4826 229.62,69.3159 232.5,70C 231.223,72.4659 231.223,74.9659 232.5,77.5C 235.361,73.2773 236.195,68.6106 235,63.5C 230.295,62.1177 230.461,61.4511 235.5,61.5C 235.5,58.1667 233.833,56.5 230.5,56.5C 231.316,61.1887 229.316,63.6887 224.5,64C 223.874,64.7504 223.374,65.5838 223,66.5C 222.667,66.1667 222.333,65.8333 222,65.5C 221.333,60.8333 221.333,56.1667 222,51.5C 223.899,47.5573 225.066,43.3907 225.5,39C 225.18,37.3468 224.18,36.3468 222.5,36C 223.489,34.1804 224.489,32.3471 225.5,30.5C 224.453,28.9436 223.786,27.2769 223.5,25.5C 222.178,25.33 221.011,25.6634 220,26.5C 218.08,33.6544 218.58,40.6544 221.5,47.5C 220.027,53.3288 219.027,59.3288 218.5,65.5C 217.187,57.9421 217.187,50.4421 218.5,43C 218.167,42.8333 217.833,42.6667 217.5,42.5C 216.416,43.6651 215.583,44.9984 215,46.5C 214.667,50.5 214.333,54.5 214,58.5C 213.617,57.944 213.117,57.6107 212.5,57.5C 213.881,46.667 216.047,36.0003 219,25.5C 220.669,23.2787 222.669,22.9454 225,24.5C 227.65,19.8242 230.65,19.4909 234,23.5C 234.667,25.5 235.333,27.5 236,29.5C 237.378,50.1437 238.711,70.8104 240,91.5C 237.847,93.4439 235.347,93.9439 232.5,93C 230.26,86.3963 229.093,79.563 229,72.5C 228.439,71.9781 227.772,71.6448 227,71.5C 225.2,72.3195 223.366,72.9862 221.5,73.5 Z M 226.5,35.5 C 227.06,43.8978 227.394,52.5644 227.5,61.5C 226.167,61.5 224.833,61.5 223.5,61.5C 224.5,52.8333 225.5,44.1667 226.5,35.5 Z"/></g>
<g><path style="opacity:1" fill="#140d15" d="M 72.5,20.5 C 72.7234,24.1621 73.7234,27.4954 75.5,30.5C 75.5,31.1667 75.5,31.8333 75.5,32.5C 76.1717,36.1883 77.0051,39.8549 78,43.5C 78.3826,44.056 78.8826,44.3893 79.5,44.5C 88.8661,44.7208 98.1994,44.3874 107.5,43.5C 107.5,44.8333 107.5,46.1667 107.5,47.5C 107.167,48.1667 106.833,48.8333 106.5,49.5C 105.209,49.7373 104.209,49.404 103.5,48.5C 102.666,47.2521 101.333,46.5854 99.5,46.5C 95.6302,46.8094 91.9635,47.4761 88.5,48.5C 85.5701,49.299 82.5701,49.6323 79.5,49.5C 77.5891,49.4257 76.4224,48.4257 76,46.5C 74.0594,38.8479 72.2261,31.1812 70.5,23.5C 68.4631,22.3982 67.1298,23.0648 66.5,25.5C 64.049,28.7403 62.3824,32.4069 61.5,36.5C 60.3263,37.5137 59.6596,38.847 59.5,40.5C 59.1667,40.5 58.8333,40.5 58.5,40.5C 58.5,38.5 58.5,36.5 58.5,34.5C 58.9652,30.9385 60.1319,27.6051 62,24.5C 62.6667,23.1667 63.3333,23.1667 64,24.5C 65.7507,20.5379 68.584,19.2046 72.5,20.5 Z"/></g>
<g><path style="opacity:1" fill="#c1a342" d="M 66.5,25.5 C 66.1631,29.836 64.4965,33.5026 61.5,36.5C 62.3824,32.4069 64.049,28.7403 66.5,25.5 Z"/></g>
<g><path style="opacity:1" fill="#b19668" d="M 61.5,36.5 C 61.7406,38.8984 61.0739,40.8984 59.5,42.5C 59.5,41.8333 59.5,41.1667 59.5,40.5C 59.6596,38.847 60.3263,37.5137 61.5,36.5 Z"/></g>
<g><path style="opacity:1" fill="#030f3a" d="M 58.5,34.5 C 58.5,36.5 58.5,38.5 58.5,40.5C 57.544,43.4386 55.8774,45.772 53.5,47.5C 51.8333,47.5 50.1667,47.5 48.5,47.5C 50.2184,46.776 52.0517,46.1094 54,45.5C 55.4284,41.693 56.9284,38.0264 58.5,34.5 Z"/></g>
<g><path style="opacity:1" fill="#3d5cd9" d="M 268.5,70.5 C 266.93,80.6245 266.264,90.9578 266.5,101.5C 265.127,101.657 263.793,101.49 262.5,101C 264.283,99.9335 264.783,98.4335 264,96.5C 263,97.8333 262,99.1667 261,100.5C 258.701,92.3792 257.867,84.0459 258.5,75.5C 258.664,72.8127 258.497,70.146 258,67.5C 252.784,70.3551 248.784,69.0218 246,63.5C 242.654,54.2114 243.987,45.5447 250,37.5C 253.5,32.6667 257.667,28.5 262.5,25C 269.195,20.6678 273.862,22.1678 276.5,29.5C 276.392,30.4419 276.059,31.2753 275.5,32C 265.294,37.2056 258.294,45.2056 254.5,56C 255.126,56.7504 255.626,57.5838 256,58.5C 258.124,57.3783 259.957,55.8783 261.5,54C 263.112,53.2797 264.612,53.4464 266,54.5C 267.221,59.9747 268.054,65.3081 268.5,70.5 Z"/></g>
<g><path style="opacity:1" fill="#8e8984" d="M 75.5,32.5 C 75.8333,32.5 76.1667,32.5 76.5,32.5C 78.5314,36.216 79.5314,40.216 79.5,44.5C 78.8826,44.3893 78.3826,44.056 78,43.5C 77.0051,39.8549 76.1717,36.1883 75.5,32.5 Z"/></g>
<g><path style="opacity:1" fill="#626a96" d="M 58.5,40.5 C 58.8333,40.5 59.1667,40.5 59.5,40.5C 59.5,41.1667 59.5,41.8333 59.5,42.5C 59.5,43.1667 59.5,43.8333 59.5,44.5C 57.8958,45.287 57.2291,46.6203 57.5,48.5C 56.1667,48.5 54.8333,48.5 53.5,48.5C 53.5,48.1667 53.5,47.8333 53.5,47.5C 55.8774,45.772 57.544,43.4386 58.5,40.5 Z"/></g>
<g><path style="opacity:1" fill="#626790" d="M 103.5,48.5 C 103.167,48.5 102.833,48.5 102.5,48.5C 97.8333,48.5 93.1667,48.5 88.5,48.5C 91.9635,47.4761 95.6302,46.8094 99.5,46.5C 101.333,46.5854 102.666,47.2521 103.5,48.5 Z"/></g>
<g><path style="opacity:1" fill="#c8a235" d="M 59.5,44.5 C 59.1307,46.4412 58.464,48.2745 57.5,50C 49.902,50.2578 42.2354,50.7578 34.5,51.5C 40.6134,49.9399 46.9468,48.9399 53.5,48.5C 54.8333,48.5 56.1667,48.5 57.5,48.5C 57.2291,46.6203 57.8958,45.287 59.5,44.5 Z"/></g>
<g><path style="opacity:1" fill="#dbb448" d="M 88.5,48.5 C 93.1667,48.5 97.8333,48.5 102.5,48.5C 102.5,49.1667 102.167,49.5 101.5,49.5C 97.2169,49.3771 93.0502,50.0438 89,51.5C 85.6235,51.193 82.4569,50.5263 79.5,49.5C 82.5701,49.6323 85.5701,49.299 88.5,48.5 Z"/></g>
<g><path style="opacity:1" fill="#a78e4c" d="M 33.5,51.5 C 32.8902,52.391 32.5569,53.391 32.5,54.5C 30.8967,54.6882 29.5634,54.1882 28.5,53C 30.1545,52.3923 31.8211,51.8923 33.5,51.5 Z"/></g>
<g><path style="opacity:1" fill="#3b5cdb" d="M 407.5,42.5 C 413.388,43.8918 418.055,47.0585 421.5,52C 421.355,52.772 421.022,53.4387 420.5,54C 415.128,53.9353 410.961,56.102 408,60.5C 403.163,70.5146 401.496,80.8479 403,91.5C 399.156,93.2379 395.823,92.5712 393,89.5C 392.786,84.1146 392.286,78.7813 391.5,73.5C 393.646,65.6033 394.813,57.2699 395,48.5C 396.667,47.1667 398.333,47.1667 400,48.5C 402.134,45.8474 404.634,43.8474 407.5,42.5 Z"/></g>
<g><path style="opacity:1" fill="#877c6e" d="M 32.5,54.5 C 36.0246,55.7589 39.0246,57.7589 41.5,60.5C 37.6304,59.7367 34.6304,57.7367 32.5,54.5 Z"/></g>
<g><path style="opacity:1" fill="#3c5cd9" d="M 133.5,91.5 C 133.723,89.6583 134.057,87.825 134.5,86C 132.779,80.9805 132.113,75.8138 132.5,70.5C 131.5,70.5 130.5,70.5 129.5,70.5C 130.064,62.09 130.064,53.9234 129.5,46C 130.293,42.5894 130.793,39.0894 131,35.5C 135.055,28.8293 138.721,29.1626 142,36.5C 142.361,39.5252 142.861,42.5252 143.5,45.5C 142.7,59.4743 142.2,73.4743 142,87.5C 140.693,92.2872 137.859,93.6205 133.5,91.5 Z"/></g>
<g><path style="opacity:1" fill="#3d5cd8" d="M 300.5,25.5 C 304.76,25.9631 308.093,27.9631 310.5,31.5C 305.375,33.6583 300.042,35.6583 294.5,37.5C 293.015,41.428 292.182,45.428 292,49.5C 296.161,47.716 300.328,47.5493 304.5,49C 306.327,49.8993 307.66,51.2326 308.5,53C 308.355,53.772 308.022,54.4387 307.5,55C 301.938,56.9736 296.271,58.4736 290.5,59.5C 290.781,64.5649 290.448,69.5649 289.5,74.5C 289.808,75.3081 290.308,75.9747 291,76.5C 294.648,72.1873 298.981,68.854 304,66.5C 302.68,73.815 299.68,80.4817 295,86.5C 290.542,91.7669 286.042,91.7669 281.5,86.5C 280.287,81.8894 279.287,77.2227 278.5,72.5C 279.086,60.0573 280.586,47.724 283,35.5C 286.748,29.4605 292.248,26.6272 299.5,27C 300.056,26.6174 300.389,26.1174 300.5,25.5 Z"/></g>
<g><path style="opacity:1" fill="#c0a767" d="M 107.5,47.5 C 108.097,47.7352 108.43,48.2352 108.5,49C 107.876,51.0851 106.876,52.9184 105.5,54.5C 102.5,56.8333 99.8333,59.5 97.5,62.5C 96.5084,62.3284 95.8417,62.6618 95.5,63.5C 94.8333,63.5 94.1667,63.5 93.5,63.5C 98.5118,59.4873 102.845,54.8206 106.5,49.5C 106.833,48.8333 107.167,48.1667 107.5,47.5 Z"/></g>
<g><path style="opacity:1" fill="#6d7aa4" d="M 105.5,54.5 C 103.833,58.1667 101.167,60.8333 97.5,62.5C 99.8333,59.5 102.5,56.8333 105.5,54.5 Z"/></g>
<g><path style="opacity:1" fill="#3d5cda" d="M 194.5,41.5 C 196.041,44.6855 197.374,48.0188 198.5,51.5C 198.304,53.2861 197.471,54.6195 196,55.5C 195.915,53.9154 195.749,52.5821 195.5,51.5C 192.628,53.7988 189.628,53.7988 186.5,51.5C 186.167,52.3333 185.833,53.1667 185.5,54C 186.618,56.059 187.285,58.2257 187.5,60.5C 186.5,60.5 185.5,60.5 184.5,60.5C 184.857,64.664 183.19,67.8307 179.5,70C 174.6,68.776 172.934,70.6093 174.5,75.5C 175.376,76.2508 176.376,76.7508 177.5,77C 177.216,78.9562 177.216,81.1229 177.5,83.5C 175.097,83.552 172.764,83.2186 170.5,82.5C 168.233,79.4901 167.9,76.1568 169.5,72.5C 168.922,66.4618 168.088,60.4618 167,54.5C 162.746,63.869 159.912,73.5357 158.5,83.5C 156.48,76.8235 155.147,69.9902 154.5,63C 156.055,61.4173 157.222,59.584 158,57.5C 157.923,61.8049 157.756,66.1382 157.5,70.5C 158.5,70.5 159.5,70.5 160.5,70.5C 160.354,67.1737 161.021,64.007 162.5,61C 161.946,58.1764 161.446,55.343 161,52.5C 160.29,51.0267 159.124,50.3601 157.5,50.5C 157.865,55.4214 156.865,55.7547 154.5,51.5C 149.938,50.8602 149.604,49.6936 153.5,48C 149.889,46.7458 148.389,47.9124 149,51.5C 152.805,52.6069 153.972,54.9403 152.5,58.5C 150.473,53.2876 148.806,53.2876 147.5,58.5C 147.036,55.7576 146.703,53.2576 146.5,51C 146.788,47.8965 148.455,46.3965 151.5,46.5C 153.374,46.3898 154.874,47.0564 156,48.5C 157.897,45.8726 159.397,43.0393 160.5,40C 161.833,39.3333 163.167,39.3333 164.5,40C 171.537,44.8949 175.37,51.7282 176,60.5C 179.94,53.5637 184.273,46.8971 189,40.5C 191.144,39.1563 192.977,39.4896 194.5,41.5 Z"/></g>
<g><path style="opacity:1" fill="#160c03" d="M 102.5,48.5 C 102.833,48.5 103.167,48.5 103.5,48.5C 104.209,49.404 105.209,49.7373 106.5,49.5C 102.845,54.8206 98.5118,59.4873 93.5,63.5C 88.7253,66.0294 87.392,69.6961 89.5,74.5C 90.2327,79.4449 91.566,84.1115 93.5,88.5C 94.029,92.9487 95.029,97.282 96.5,101.5C 95.9032,102.139 95.0698,102.472 94,102.5C 92.0614,102.046 90.228,101.379 88.5,100.5C 86.1002,97.0969 83.1002,94.4302 79.5,92.5C 78.0937,92.0269 77.427,91.0269 77.5,89.5C 77.2627,88.209 77.596,87.209 78.5,86.5C 83.0575,90.5533 87.5575,94.8867 92,99.5C 90.7085,90.6145 88.3752,81.9478 85,73.5C 84.3333,71.5 84.3333,69.5 85,67.5C 90.6773,61.5972 96.1773,55.5972 101.5,49.5C 102.167,49.5 102.5,49.1667 102.5,48.5 Z"/></g>
<g><path style="opacity:1" fill="#3e5bce" d="M 425.5,61.5 C 426.451,63.118 427.784,64.4513 429.5,65.5C 432.205,64.0417 434.705,64.3751 437,66.5C 437.667,65.1667 438.333,63.8333 439,62.5C 441.167,63.8277 443,65.4944 444.5,67.5C 442.741,68.754 441.241,68.4206 440,66.5C 438.24,77.8287 438.074,89.1621 439.5,100.5C 438.21,99.9423 437.377,98.9423 437,97.5C 436.393,87.3922 436.726,77.3922 438,67.5C 431.482,70.4912 427.315,68.4912 425.5,61.5 Z"/></g>
<g><path style="opacity:1" fill="#908d88" d="M 93.5,63.5 C 94.1667,63.5 94.8333,63.5 95.5,63.5C 93.8622,65.3008 92.0289,66.9675 90,68.5C 89.5045,70.4727 89.3379,72.4727 89.5,74.5C 87.392,69.6961 88.7253,66.0294 93.5,63.5 Z"/></g>
<g><path style="opacity:1" fill="#3d5cd8" d="M 480.5,25.5 C 482.859,26.176 485.192,27.0093 487.5,28C 489.155,29.4443 489.822,31.2776 489.5,33.5C 484.301,34.0096 479.301,35.3429 474.5,37.5C 472.704,41.3448 471.87,45.3448 472,49.5C 477.676,46.7101 483.01,47.3768 488,51.5C 488.492,52.549 488.326,53.549 487.5,54.5C 482.062,56.9429 476.395,58.6096 470.5,59.5C 469.443,65.1766 469.443,70.8433 470.5,76.5C 486.79,62.0442 488.957,64.3775 477,83.5C 472.873,91.368 467.539,92.368 461,86.5C 460.206,83.5285 459.539,80.5285 459,77.5C 457.995,63.7185 459.329,49.7185 463,35.5C 466.737,29.3809 472.237,26.5476 479.5,27C 480.056,26.6174 480.389,26.1174 480.5,25.5 Z"/></g>
<g><path style="opacity:1" fill="#3d5bd5" d="M 345.5,33.5 C 344.566,32.4324 344.232,31.099 344.5,29.5C 342.876,29.3601 341.71,30.0267 341,31.5C 340.075,30.9535 339.242,30.2868 338.5,29.5C 341.168,28.485 341.834,26.8183 340.5,24.5C 338.518,23.0302 336.852,23.3636 335.5,25.5C 334.335,32.8107 334.169,40.144 335,47.5C 337.533,50.8065 336.699,52.4732 332.5,52.5C 332.5,53.8333 332.5,55.1667 332.5,56.5C 335.282,56.2273 337.449,54.894 339,52.5C 339.5,52.8333 340,53.1667 340.5,53.5C 339.995,55.8697 338.995,58.203 337.5,60.5C 340.833,60.1667 344.167,59.8333 347.5,59.5C 346.199,57.3281 345.199,54.9948 344.5,52.5C 343.325,52.719 342.325,52.3857 341.5,51.5C 341.994,46.9286 342.994,42.5952 344.5,38.5C 344.605,42.5483 344.272,46.5483 343.5,50.5C 348.167,50.1667 352.833,49.8333 357.5,49.5C 357.392,51.7834 356.559,53.7834 355,55.5C 350.647,58.3703 346.48,61.3703 342.5,64.5C 341.004,73.4297 340.17,82.4297 340,91.5C 335.233,94.7575 331.566,93.7575 329,88.5C 329.256,81.5637 329.756,74.897 330.5,68.5C 323.625,68.6928 321.791,65.6928 325,59.5C 326.708,57.4565 328.708,55.7899 331,54.5C 332.283,44.3386 333.283,34.3386 334,24.5C 338.815,21.1434 343.982,20.6434 349.5,23C 351.327,23.8993 352.66,25.2326 353.5,27C 353.095,27.9454 352.428,28.6121 351.5,29C 349.527,29.4955 347.527,29.6621 345.5,29.5C 345.5,30.8333 345.5,32.1667 345.5,33.5 Z"/></g>
<g><path style="opacity:1" fill="#516fdb" d="M 77.5,21.5 C 76.3501,20.1498 75.6834,20.3164 75.5,22C 76.3822,25.4408 76.7155,28.9408 76.5,32.5C 76.1667,32.5 75.8333,32.5 75.5,32.5C 75.5,31.8333 75.5,31.1667 75.5,30.5C 75.9763,26.6215 74.9763,23.2882 72.5,20.5C 68.584,19.2046 65.7507,20.5379 64,24.5C 63.3333,23.1667 62.6667,23.1667 62,24.5C 60.1319,27.6051 58.9652,30.9385 58.5,34.5C 56.9284,38.0264 55.4284,41.693 54,45.5C 52.0517,46.1094 50.2184,46.776 48.5,47.5C 42.7898,47.471 37.1231,47.971 31.5,49C 25.2305,51.1766 24.8972,54.1766 30.5,58C 35.6682,61.4185 41.0016,64.5852 46.5,67.5C 46.8333,68.5 47.1667,69.5 47.5,70.5C 46.072,75.0651 45.072,79.7318 44.5,84.5C 41.9326,89.3446 40.9326,94.6779 41.5,100.5C 43.4147,100.784 45.0813,100.451 46.5,99.5C 47.1667,99.5 47.8333,99.5 48.5,99.5C 46.5501,101.026 44.2167,102.026 41.5,102.5C 41.8627,103.183 42.1961,103.85 42.5,104.5C 41.5041,104.586 40.6708,104.252 40,103.5C 38.767,101.134 37.9336,98.6342 37.5,96C 39.016,87.7594 40.516,79.5928 42,71.5C 35.8091,66.636 29.6425,61.8027 23.5,57C 19.1383,52.7376 19.8049,49.4043 25.5,47C 33.7363,44.8194 42.0696,43.1527 50.5,42C 53.2448,37.4348 55.4115,32.6015 57,27.5C 59.215,22.9003 62.0483,18.7336 65.5,15C 71.8096,12.6571 75.8096,14.8238 77.5,21.5 Z"/></g>
<g><path style="opacity:1" fill="#817e83" d="M 72.5,20.5 C 74.9763,23.2882 75.9763,26.6215 75.5,30.5C 73.7234,27.4954 72.7234,24.1621 72.5,20.5 Z"/></g>
<g><path style="opacity:1" fill="#3b5bdc" d="M 221.5,73.5 C 220.345,78.7918 219.178,84.1251 218,89.5C 215.321,93.9703 211.988,94.3036 208,90.5C 207.219,89.2713 206.719,87.938 206.5,86.5C 208.828,76.852 210.828,67.1854 212.5,57.5C 213.117,57.6107 213.617,57.944 214,58.5C 214.333,54.5 214.667,50.5 215,46.5C 215.583,44.9984 216.416,43.6651 217.5,42.5C 217.833,42.6667 218.167,42.8333 218.5,43C 217.187,50.4421 217.187,57.9421 218.5,65.5C 219.027,59.3288 220.027,53.3288 221.5,47.5C 218.58,40.6544 218.08,33.6544 220,26.5C 221.011,25.6634 222.178,25.33 223.5,25.5C 223.786,27.2769 224.453,28.9436 225.5,30.5C 224.489,32.3471 223.489,34.1804 222.5,36C 224.18,36.3468 225.18,37.3468 225.5,39C 225.066,43.3907 223.899,47.5573 222,51.5C 221.333,56.1667 221.333,60.8333 222,65.5C 222.333,65.8333 222.667,66.1667 223,66.5C 223.374,65.5838 223.874,64.7504 224.5,64C 229.316,63.6887 231.316,61.1887 230.5,56.5C 233.833,56.5 235.5,58.1667 235.5,61.5C 230.461,61.4511 230.295,62.1177 235,63.5C 236.195,68.6106 235.361,73.2773 232.5,77.5C 231.223,74.9659 231.223,72.4659 232.5,70C 229.62,69.3159 226.787,69.4826 224,70.5C 222.715,70.0496 221.548,69.3829 220.5,68.5C 220.167,68.8333 219.833,69.1667 219.5,69.5C 220.853,70.5237 221.52,71.857 221.5,73.5 Z"/></g>
<g><path style="opacity:1" fill="#3d5cd9" d="M 362.5,45.5 C 363.985,38.6817 367.985,34.0151 374.5,31.5C 377.764,31.9741 380.598,33.3075 383,35.5C 385.415,42.0176 387.581,48.6843 389.5,55.5C 389.676,66.4467 386.842,76.78 381,86.5C 375.667,93.1667 370.333,93.1667 365,86.5C 357.558,73.3721 356.725,59.7054 362.5,45.5 Z M 376.5,44.5 C 377.88,44.9623 378.547,45.9623 378.5,47.5C 378.349,58.1778 376.182,68.8444 372,79.5C 369.161,67.3425 370.661,55.6759 376.5,44.5 Z"/></g>
<g><path style="opacity:1" fill="#3a5be2" d="M 362.5,45.5 C 363.496,45.5858 364.329,45.2524 365,44.5C 365.219,45.938 365.719,47.2713 366.5,48.5C 368.59,47.2092 369.924,47.8758 370.5,50.5C 369.359,51.4255 369.359,52.2588 370.5,53C 369.833,53.3333 369.167,53.6667 368.5,54C 368.986,56.0266 368.986,58.1933 368.5,60.5C 367.5,60.5 366.5,60.5 365.5,60.5C 366.683,63.1348 367.516,65.8015 368,68.5C 366.187,71.3883 364.521,74.3883 363,77.5C 362.667,75.8333 362.333,74.1667 362,72.5C 361.667,72.8333 361.333,73.1667 361,73.5C 359.928,69.8908 360.761,66.8908 363.5,64.5C 362.535,62.6711 361.535,60.8377 360.5,59C 362.169,54.6536 362.836,50.1536 362.5,45.5 Z"/></g>
<g><path style="opacity:1" fill="#3e5bd5" d="M 194.5,41.5 C 195.643,41.9081 196.643,42.5748 197.5,43.5C 202.588,57.0311 204.755,71.0311 204,85.5C 199.498,88.6622 196.164,87.6622 194,82.5C 193.566,76.6213 193.733,70.9546 194.5,65.5C 193.899,61.8406 193.233,58.1739 192.5,54.5C 186.069,63.1487 181.569,72.8153 179,83.5C 175.611,86.1956 172.778,85.8622 170.5,82.5C 172.764,83.2186 175.097,83.552 177.5,83.5C 177.216,81.1229 177.216,78.9562 177.5,77C 176.376,76.7508 175.376,76.2508 174.5,75.5C 172.934,70.6093 174.6,68.776 179.5,70C 183.19,67.8307 184.857,64.664 184.5,60.5C 185.5,60.5 186.5,60.5 187.5,60.5C 187.285,58.2257 186.618,56.059 185.5,54C 185.833,53.1667 186.167,52.3333 186.5,51.5C 189.628,53.7988 192.628,53.7988 195.5,51.5C 195.749,52.5821 195.915,53.9154 196,55.5C 197.471,54.6195 198.304,53.2861 198.5,51.5C 197.374,48.0188 196.041,44.6855 194.5,41.5 Z"/></g>
<g><path style="opacity:0.997" fill="#425fc1" d="M 129.5,70.5 C 130.5,70.5 131.5,70.5 132.5,70.5C 132.113,75.8138 132.779,80.9805 134.5,86C 134.057,87.825 133.723,89.6583 133.5,91.5C 131.723,84.7006 130.39,77.7006 129.5,70.5 Z"/></g>
<g><path style="opacity:1" fill="#3a5bde" d="M 158.5,83.5 C 160.284,87.1426 159.284,89.8093 155.5,91.5C 153.494,91.8677 151.494,91.3677 149.5,90C 148.789,88.7453 147.956,87.5786 147,86.5C 147.282,76.8864 147.449,67.5531 147.5,58.5C 148.806,53.2876 150.473,53.2876 152.5,58.5C 153.972,54.9403 152.805,52.6069 149,51.5C 148.389,47.9124 149.889,46.7458 153.5,48C 149.604,49.6936 149.938,50.8602 154.5,51.5C 156.865,55.7547 157.865,55.4214 157.5,50.5C 159.124,50.3601 160.29,51.0267 161,52.5C 161.446,55.343 161.946,58.1764 162.5,61C 161.021,64.007 160.354,67.1737 160.5,70.5C 159.5,70.5 158.5,70.5 157.5,70.5C 157.756,66.1382 157.923,61.8049 158,57.5C 157.222,59.584 156.055,61.4173 154.5,63C 155.147,69.9902 156.48,76.8235 158.5,83.5 Z"/></g>
<g><path style="opacity:0.998" fill="#435dc2" d="M 446.5,60.5 C 448.803,74.3116 448.97,88.3116 447,102.5C 443.822,104.167 441.322,103.5 439.5,100.5C 441.764,101.219 444.097,101.552 446.5,101.5C 446.5,87.8333 446.5,74.1667 446.5,60.5 Z"/></g>
<g><path style="opacity:1" fill="#8d7d78" d="M 69.5,78.5 C 73.5895,78.5881 76.2562,80.5881 77.5,84.5C 75.0705,82.0551 72.4038,80.0551 69.5,78.5 Z"/></g>
<g><path style="opacity:1" fill="#8b8b8e" d="M 89.5,74.5 C 92.6133,78.5223 93.9466,83.189 93.5,88.5C 91.566,84.1115 90.2327,79.4449 89.5,74.5 Z"/></g>
<g><path style="opacity:1" fill="#4d6cd8" d="M 77.5,21.5 C 79.7679,27.9049 81.4346,34.5716 82.5,41.5C 89.5076,40.9807 96.5076,40.3141 103.5,39.5C 110.176,39.0121 113.343,42.0121 113,48.5C 111.587,51.6612 109.92,54.6612 108,57.5C 103.1,62.3997 98.2669,67.2331 93.5,72C 96.7286,80.3524 99.5619,88.8524 102,97.5C 102.818,100.227 102.652,102.894 101.5,105.5C 96.8831,107.914 92.2165,107.747 87.5,105C 80.9902,99.6564 74.9902,93.8231 69.5,87.5C 63.3118,92.8559 56.9785,98.0225 50.5,103C 48.0036,105.116 45.3369,105.616 42.5,104.5C 42.1961,103.85 41.8627,103.183 41.5,102.5C 44.2167,102.026 46.5501,101.026 48.5,99.5C 55.7512,93.9189 62.4179,87.5856 68.5,80.5C 71.1606,83.8273 74.1606,86.8273 77.5,89.5C 77.427,91.0269 78.0937,92.0269 79.5,92.5C 81.2539,96.5882 84.2539,99.2549 88.5,100.5C 90.228,101.379 92.0614,102.046 94,102.5C 95.0698,102.472 95.9032,102.139 96.5,101.5C 97.1524,100.551 97.4857,99.3847 97.5,98C 96.6855,94.4561 95.3522,91.2894 93.5,88.5C 93.9466,83.189 92.6133,78.5223 89.5,74.5C 89.3379,72.4727 89.5045,70.4727 90,68.5C 92.0289,66.9675 93.8622,65.3008 95.5,63.5C 95.8417,62.6618 96.5084,62.3284 97.5,62.5C 101.167,60.8333 103.833,58.1667 105.5,54.5C 106.876,52.9184 107.876,51.0851 108.5,49C 108.43,48.2352 108.097,47.7352 107.5,47.5C 107.5,46.1667 107.5,44.8333 107.5,43.5C 98.1994,44.3874 88.8661,44.7208 79.5,44.5C 79.5314,40.216 78.5314,36.216 76.5,32.5C 76.7155,28.9408 76.3822,25.4408 75.5,22C 75.6834,20.3164 76.3501,20.1498 77.5,21.5 Z"/></g>
<g><path style="opacity:1" fill="#110a14" d="M 48.5,47.5 C 50.1667,47.5 51.8333,47.5 53.5,47.5C 53.5,47.8333 53.5,48.1667 53.5,48.5C 46.9468,48.9399 40.6134,49.9399 34.5,51.5C 34.1667,51.5 33.8333,51.5 33.5,51.5C 31.8211,51.8923 30.1545,52.3923 28.5,53C 29.5634,54.1882 30.8967,54.6882 32.5,54.5C 34.6304,57.7367 37.6304,59.7367 41.5,60.5C 43.9422,62.2258 46.6089,63.7258 49.5,65C 50.5742,65.7387 51.2409,66.7387 51.5,68C 49.6297,77.0169 47.6297,86.0169 45.5,95C 45.8333,95.5 46.1667,96 46.5,96.5C 53.2836,91.2189 59.617,85.3855 65.5,79C 66.7932,78.51 68.1266,78.3433 69.5,78.5C 72.4038,80.0551 75.0705,82.0551 77.5,84.5C 77.8333,85.1667 78.1667,85.8333 78.5,86.5C 77.596,87.209 77.2627,88.209 77.5,89.5C 74.1606,86.8273 71.1606,83.8273 68.5,80.5C 62.4179,87.5856 55.7512,93.9189 48.5,99.5C 47.8333,99.5 47.1667,99.5 46.5,99.5C 45.5041,99.5858 44.6708,99.2524 44,98.5C 43.6666,93.8262 43.8333,89.1595 44.5,84.5C 45.072,79.7318 46.072,75.0651 47.5,70.5C 47.1667,69.5 46.8333,68.5 46.5,67.5C 41.0016,64.5852 35.6682,61.4185 30.5,58C 24.8972,54.1766 25.2305,51.1766 31.5,49C 37.1231,47.971 42.7898,47.471 48.5,47.5 Z"/></g>
<g><path style="opacity:1" fill="#a6967c" d="M 93.5,88.5 C 95.3522,91.2894 96.6855,94.4561 97.5,98C 97.4857,99.3847 97.1524,100.551 96.5,101.5C 95.029,97.282 94.029,92.9487 93.5,88.5 Z"/></g>
<g><path style="opacity:1" fill="#41495c" d="M 79.5,92.5 C 83.1002,94.4302 86.1002,97.0969 88.5,100.5C 84.2539,99.2549 81.2539,96.5882 79.5,92.5 Z"/></g>
<g><path style="opacity:1" fill="#9a9084" d="M 44.5,84.5 C 43.8333,89.1595 43.6666,93.8262 44,98.5C 44.6708,99.2524 45.5041,99.5858 46.5,99.5C 45.0813,100.451 43.4147,100.784 41.5,100.5C 40.9326,94.6779 41.9326,89.3446 44.5,84.5 Z"/></g>
<g><path style="opacity:1" fill="#445abd" d="M 268.5,70.5 C 268.161,80.5578 268.161,90.5578 268.5,100.5C 266.912,103.257 264.579,104.09 261.5,103C 259.383,101.269 257.883,99.1024 257,96.5C 256.056,89.2505 256.556,82.2505 258.5,75.5C 257.867,84.0459 258.701,92.3792 261,100.5C 262,99.1667 263,97.8333 264,96.5C 264.783,98.4335 264.283,99.9335 262.5,101C 263.793,101.49 265.127,101.657 266.5,101.5C 266.264,90.9578 266.93,80.6245 268.5,70.5 Z"/></g>
</svg>
